<svg width="33" height="33" viewBox="0 0 33 33" fill="none" xmlns="http://www.w3.org/2000/svg">
<path d="M31.0725 0.18042H1.61341C0.904952 0.18042 0.332581 0.752791 0.332581 1.46125V30.9204C0.332581 31.6288 0.904952 32.2012 1.61341 32.2012H31.0725C31.781 32.2012 32.3534 31.6288 32.3534 30.9204V1.46125C32.3534 0.752791 31.781 0.18042 31.0725 0.18042ZM27.3741 9.52648H24.8165C22.8112 9.52648 22.4229 10.4791 22.4229 11.88V14.966H27.21L26.5856 19.7971H22.4229V32.2012H17.4317V19.8012H13.257V14.966H17.4317V11.4037C17.4317 7.26902 19.9573 5.01556 23.6477 5.01556C25.4169 5.01556 26.9338 5.14764 27.3781 5.20768V9.52648H27.3741Z" fill="#EF2779"/>
</svg>
