<svg width="44" height="44" viewBox="0 0 44 44" fill="none" xmlns="http://www.w3.org/2000/svg">
<rect x="0.5" y="0.5" width="43" height="43" rx="21.5" fill="#EF2779"/>
<path d="M18.0945 23.2387L20.7257 20.6075L14.9705 14.8616C14.5242 14.4153 13.7525 14.5362 13.4736 15.1127C12.8135 16.498 13.0552 18.1994 14.1988 19.3523L18.0945 23.2387ZM24.3982 21.5559C25.8208 22.216 27.8197 21.7511 29.298 20.2728C31.0739 18.497 31.4179 15.9494 30.0512 14.5827C28.6937 13.2253 26.1462 13.56 24.361 15.3358C22.8827 16.8141 22.4179 18.8131 23.078 20.2356L14.6544 28.6592C14.4805 28.833 14.3829 29.0688 14.3829 29.3147C14.3829 29.5605 14.4805 29.7963 14.6544 29.9702C14.8282 30.144 15.064 30.2417 15.3099 30.2417C15.5557 30.2417 15.7915 30.144 15.9653 29.9702L21.7205 24.2336L27.4664 29.9795C27.5525 30.0655 27.6547 30.1338 27.7672 30.1804C27.8796 30.227 28.0002 30.251 28.1219 30.251C28.2436 30.251 28.3642 30.227 28.4766 30.1804C28.5891 30.1338 28.6913 30.0655 28.7774 29.9795C28.8635 29.8934 28.9317 29.7912 28.9783 29.6787C29.0249 29.5663 29.0489 29.4457 29.0489 29.324C29.0489 29.2022 29.0249 29.0817 28.9783 28.9692C28.9317 28.8568 28.8635 28.7546 28.7774 28.6685L23.0315 22.9226L24.3982 21.5559Z" fill="white"/>
</svg>
