<svg width="33" height="33" viewBox="0 0 33 33" fill="none" xmlns="http://www.w3.org/2000/svg">
<path d="M31.0603 0.18042H1.6012C0.892745 0.18042 0.320374 0.752791 0.320374 1.46125V30.9204C0.320374 31.6288 0.892745 32.2012 1.6012 32.2012H31.0603C31.7688 32.2012 32.3412 31.6288 32.3412 30.9204V1.46125C32.3412 0.752791 31.7688 0.18042 31.0603 0.18042ZM9.81854 27.4661H5.06745V12.1842H9.81854V27.4661ZM7.445 10.0949C6.90035 10.0949 6.36793 9.93335 5.91507 9.63076C5.46222 9.32817 5.10926 8.89808 4.90083 8.39489C4.6924 7.89171 4.63787 7.33801 4.74412 6.80383C4.85038 6.26965 5.11265 5.77897 5.49778 5.39385C5.8829 5.00872 6.37358 4.74645 6.90776 4.64019C7.44194 4.53394 7.99564 4.58847 8.49883 4.7969C9.00201 5.00533 9.4321 5.35829 9.73469 5.81114C10.0373 6.264 10.1988 6.79642 10.1988 7.34107C10.1948 8.86205 8.96198 10.0949 7.445 10.0949ZM27.6061 27.4661H22.859V20.0333C22.859 18.2602 22.827 15.9827 20.3894 15.9827C17.9198 15.9827 17.5395 17.9119 17.5395 19.9052V27.4661H12.7965V12.1842H17.3514V14.2736H17.4155C18.0479 13.0728 19.5969 11.804 21.9104 11.804C26.7215 11.804 27.6061 14.97 27.6061 19.0847V27.4661Z" fill="#EF2779"/>
</svg>
