<svg width="106" height="89" viewBox="0 0 106 89" fill="none" xmlns="http://www.w3.org/2000/svg">
<g clip-path="url(#clip0_5_1771)">
<path d="M53.1243 0.5C24.703 0.5 2.4364 36.58 0.329651 67.0536C9.24856 82.4982 30.7562 88.3038 53.1251 88.3038C75.4923 88.3038 97.0012 82.4982 105.916 67.0532C103.808 36.58 81.5447 0.5 53.1247 0.5" fill="#B6DEFF"/>
<path d="M98.4887 59.7947C98.4887 59.7947 92.2115 46.2535 85.8313 38.3533C79.4464 30.4498 71.6492 21.844 67.039 21.844C62.4313 21.844 49.5507 44.5992 43.6416 44.5992C37.7313 44.5992 34.6598 34.2838 27.3934 34.2838C20.1241 34.2838 8.57506 59.1589 8.57506 59.1589L7.79248 63.3759C7.79248 63.3759 11.8047 81.125 53.7799 81.125C95.7567 81.125 99.1115 63.6671 99.1115 63.6671L98.4891 59.7943" fill="#66CC66"/>
<path d="M44.2996 54.3101C37.7806 54.3101 34.4387 47.8923 32.6267 43.9307C30.9974 40.3619 30.7154 34.7275 26.0924 34.5696C26.5466 34.3899 26.9839 34.2837 27.3938 34.2837C34.6602 34.2837 37.7317 44.5992 43.642 44.5992C49.5511 44.5992 62.4318 21.8435 67.0395 21.8435C67.9077 21.8435 68.8857 22.1492 69.947 22.6929C69.1619 22.5896 68.1553 22.6615 67.3798 23.4378C65.8904 24.9243 52.37 54.3101 44.2996 54.3101Z" fill="#17AD49"/>
</g>
<defs>
<clipPath id="clip0_5_1771">
<rect width="106" height="88" fill="white" transform="translate(0 0.5)"/>
</clipPath>
</defs>
</svg>
