<svg width="100" height="117" viewBox="0 0 100 117" fill="none" xmlns="http://www.w3.org/2000/svg">
<g clip-path="url(#clip0_5_1760)">
<path d="M30.8145 0.830722C30.2478 0.83436 29.6909 0.978594 29.1941 1.2504C27.563 2.15143 26.9647 4.23981 27.8685 5.8642L31.5512 12.4912C22.6783 17.9617 16.799 27.3065 16.799 37.9719V39.9536C15.0948 37.9997 12.59 36.7661 9.7913 36.7661C4.66341 36.7661 0.5 40.9151 0.5 46.0249V74.5466C0.5 79.656 4.6638 83.8054 9.7913 83.8054C12.59 83.8054 15.0948 82.5714 16.7986 80.6175V84.6128C16.7986 89.9993 21.2215 94.4065 26.6267 94.4065H29.1203V107.094C29.1203 112.205 33.2841 116.354 38.4116 116.354C43.5391 116.354 47.7025 112.204 47.7025 107.094V94.4065H52.0167V107.094C52.0167 112.205 56.1805 116.354 61.308 116.354C66.4355 116.354 70.599 112.204 70.599 107.094V94.4065H73.0929C78.4977 94.4065 82.9206 89.9993 82.9206 84.6128V80.6175C84.6245 82.5714 87.1296 83.8054 89.9283 83.8054C95.0558 83.8054 99.2192 79.656 99.2192 74.5466V46.0249C99.2192 40.9151 95.0558 36.7661 89.9283 36.7661C87.1296 36.7661 84.6245 37.9997 82.9206 39.9536V38.3072V38.2128C82.9214 38.1126 82.9206 38.0324 82.9206 37.9719C82.9206 27.3084 77.0278 17.9729 68.158 12.502L71.8512 5.8642C72.7545 4.23981 72.1567 2.15143 70.5255 1.2504C70.0287 0.978594 69.4718 0.83436 68.9051 0.830722C67.7005 0.819161 66.5183 1.45196 65.8957 2.57149L62.0339 9.52379C58.258 8.13526 54.1495 7.37413 49.86 7.37413C45.5744 7.37413 41.4582 8.12716 37.6853 9.513L33.8239 2.57149C33.2009 1.45196 32.0191 0.819931 30.8145 0.830722Z" fill="white"/>
<path d="M9.79164 39.1777C5.96544 39.1777 2.92081 42.2118 2.92081 46.0248V74.5466C2.92081 78.3595 5.96544 81.3936 9.79164 81.3936C13.6178 81.3936 16.6629 78.3595 16.6629 74.5466V46.0248C16.6629 42.2118 13.6178 39.1777 9.79164 39.1777ZM89.9291 39.1777C86.1025 39.1777 83.0578 42.2118 83.0578 46.0248V74.5466C83.0578 78.3595 86.1025 81.3936 89.9291 81.3936C93.7552 81.3936 96.7999 78.3595 96.7999 74.5466V46.0248C96.7999 42.2118 93.7552 39.1777 89.9291 39.1777Z" fill="#A4C639"/>
<path d="M38.412 71.7256C34.5858 71.7256 31.5408 74.7597 31.5408 78.5731V107.094C31.5408 110.907 34.5858 113.942 38.412 113.942C42.2382 113.942 45.2828 110.907 45.2828 107.094V78.5731C45.2828 74.7597 42.2382 71.7256 38.412 71.7256ZM61.3084 71.7256C57.4819 71.7256 54.4372 74.7597 54.4372 78.5731V107.094C54.4372 110.907 57.4819 113.942 61.3084 113.942C65.1346 113.942 68.1793 110.907 68.1793 107.094V78.5731C68.1793 74.7597 65.1346 71.7256 61.3084 71.7256Z" fill="#A4C639"/>
<path d="M30.8352 3.24281C30.6727 3.24476 30.5133 3.288 30.3723 3.36845C29.8823 3.63898 29.7214 4.2001 29.9933 4.68953L34.8338 13.4034C25.5217 18.2322 19.2313 27.4086 19.2189 37.9403H80.5003C80.4875 27.4086 74.1976 18.2319 64.8854 13.4034L69.7255 4.68992C69.9978 4.20048 69.8365 3.63898 69.3466 3.36845C69.2055 3.28796 69.0462 3.24471 68.8837 3.24281C68.5356 3.23896 68.2065 3.41238 68.0209 3.74612L63.1173 12.554C59.1063 10.7813 54.6072 9.78583 49.8594 9.78583C45.1117 9.78583 40.613 10.7809 36.6015 12.554L31.6979 3.74612C31.6143 3.59151 31.4896 3.46278 31.3375 3.37402C31.1854 3.28525 31.0118 3.23986 30.8356 3.24281H30.8352ZM19.2189 40.352V84.6131C19.2168 85.5831 19.407 86.544 19.7785 87.4405C20.1501 88.337 20.6956 89.1516 21.3839 89.8375C22.0722 90.5234 22.8896 91.067 23.7893 91.4372C24.689 91.8074 25.6532 91.9969 26.6265 91.9947H73.0927C74.0661 91.9969 75.0303 91.8074 75.93 91.4372C76.8297 91.0669 77.6472 90.5233 78.3354 89.8374C79.0237 89.1515 79.5693 88.3368 79.9408 87.4402C80.3123 86.5436 80.5024 85.5828 80.5003 84.6127V40.3524H19.2189V40.352Z" fill="#A4C639"/>
<path d="M35.7177 21.6664C34.3189 21.6664 33.1607 22.8202 33.1607 24.2141C33.1607 25.6085 34.3189 26.7623 35.7177 26.7623C37.1168 26.7623 38.2747 25.6085 38.2747 24.2141C38.2747 22.8202 37.1168 21.6664 35.7177 21.6664ZM64.0015 21.6664C62.6024 21.6664 61.4445 22.8202 61.4445 24.2141C61.4445 25.6085 62.6024 26.7623 64.0015 26.7623C65.4003 26.7623 66.5585 25.6085 66.5585 24.2141C66.5585 22.8202 65.4003 21.6664 64.0015 21.6664Z" fill="white"/>
</g>
<defs>
<clipPath id="clip0_5_1760">
<rect width="99" height="116" fill="white" transform="translate(0.5 0.5)"/>
</clipPath>
</defs>
</svg>
