<svg width="84" height="89" viewBox="0 0 84 89" fill="none" xmlns="http://www.w3.org/2000/svg">
<g clip-path="url(#clip0_5_1790)">
<path d="M77.6769 71.9491C77.0512 76.5745 73.9215 80.5769 69.54 82.3556C67.3937 83.244 65.069 83.5117 62.7437 83.244C60.5086 82.9777 58.2728 82.266 55.9481 80.9332C52.7286 79.1526 49.5094 76.3968 45.754 72.3054C51.6561 65.1016 55.2319 58.5201 56.5738 52.6512C57.1999 49.8938 57.2891 47.4035 57.0213 45.0908C56.664 42.8677 55.8589 40.8213 54.6065 39.0429C51.8344 35.0412 47.1851 32.7285 41.9986 32.7285C36.8121 32.7285 32.1624 35.1302 29.3904 39.0429C28.1379 40.8217 27.3342 42.8677 26.9759 45.0908C26.6186 47.4035 26.7078 49.9825 27.4233 52.6516C28.7643 58.5198 32.4303 65.1906 38.2432 72.3931C34.5769 76.4855 31.2683 79.2422 28.0488 81.0213C25.7241 82.3556 23.4883 83.0673 21.2531 83.333C18.9489 83.589 16.6167 83.2841 14.4572 82.4446C10.0754 80.6659 6.94634 76.6622 6.31995 72.0378C6.05214 69.815 6.23079 67.5919 7.12498 65.1016C7.39279 64.2116 7.84053 63.3238 8.28698 62.2558C8.91337 60.8334 9.62892 59.3204 10.3435 57.8081L10.4336 57.6314C16.6029 44.3791 23.2205 30.8611 30.1059 17.6991L30.3741 17.1644C31.0896 15.8317 31.8042 14.4093 32.5204 13.0746C33.2353 11.6513 34.04 10.3169 35.0234 9.15991C36.9012 7.0252 39.4052 5.86916 42.1772 5.86916C44.9493 5.86916 47.4529 7.0252 49.3308 9.16023C50.3145 10.3169 51.1192 11.6513 51.8347 13.0749C52.5503 14.4093 53.2649 15.8317 53.9804 17.1644L54.2495 17.6991C61.0448 30.9497 67.6625 44.4678 73.8323 57.72V57.8081C74.5479 59.2314 75.1733 60.8334 75.8889 62.2558C76.3363 63.3238 76.7831 64.2112 77.0508 65.1016C77.7664 67.4136 78.0345 69.638 77.6772 71.9491H77.6769ZM41.9986 67.7687C37.1703 61.7218 34.04 56.0294 32.9672 51.2282C32.5207 49.1822 32.4303 47.4035 32.6994 45.8024C32.8777 44.3791 33.4149 43.1334 34.1292 42.0654C35.8284 39.6663 38.6896 38.1517 41.9986 38.1517C45.3072 38.1517 48.258 39.576 49.8674 42.0654C50.5823 43.1334 51.1192 44.3791 51.2978 45.8024C51.566 47.4035 51.4765 49.2709 51.0297 51.2282C49.9569 55.9413 46.8269 61.6331 41.9986 67.7687ZM82.3269 63.1445C81.8801 62.0772 81.4327 60.9215 80.9859 59.9431C80.2703 58.343 79.5548 56.83 78.9287 55.4067L78.8392 55.3187C72.67 41.9774 66.0524 28.4594 59.0775 15.121L58.8097 14.5857C58.0941 13.2516 57.3786 11.8283 56.664 10.4056C55.7691 8.80391 54.8746 7.11581 53.4445 5.51381C50.582 1.95639 46.4696 0 42.0874 0C37.6165 0 33.5929 1.95639 30.6415 5.33677C29.3009 6.93716 28.3172 8.62687 27.423 10.2289C26.7075 11.6513 25.9919 13.0746 25.2767 14.4093L25.0086 14.9414C18.1238 28.2817 11.417 41.8007 5.24678 55.141L5.15762 55.3187C4.53123 56.741 3.81568 58.2524 3.10013 59.8544C2.62176 60.9085 2.17469 61.9763 1.75949 63.0565C0.596514 66.3463 0.239225 69.4597 0.685998 72.6608C1.67033 79.3312 6.1413 84.935 12.3112 87.4244C14.6355 88.4034 17.05 88.8478 19.5542 88.8478C20.2695 88.8478 21.1637 88.7588 21.8792 88.6691C24.8296 88.3128 27.8698 87.3364 30.8202 85.6457C34.4871 83.6003 37.9747 80.6659 41.9088 76.3968C45.8429 80.6659 49.42 83.6007 52.9967 85.6457C55.9481 87.3364 58.988 88.3128 61.9387 88.6691C62.6542 88.7588 63.5484 88.8478 64.2637 88.8478C66.7676 88.8478 69.2709 88.4034 71.5067 87.4244C77.7661 84.935 82.1476 79.2426 83.1313 72.6608C83.8468 69.5474 83.4885 66.4362 82.3265 63.1442L82.3269 63.1445Z" fill="#E0565B"/>
</g>
<defs>
<clipPath id="clip0_5_1790">
<rect width="83" height="89" fill="white" transform="translate(0.5)"/>
</clipPath>
</defs>
</svg>
