<svg width="88" height="87" viewBox="0 0 88 87" fill="none" xmlns="http://www.w3.org/2000/svg">
<g clip-path="url(#clip0_5_1797)">
<path d="M19.553 0H68.447C78.9699 0 87.5 8.53008 87.5 19.053V67.947C87.5 78.4699 78.9699 87 68.447 87H19.553C9.03008 87 0.5 78.4699 0.5 67.947V19.053C0.5 8.53008 9.03008 0 19.553 0Z" fill="url(#paint0_linear_5_1797)"/>
<path d="M28.3814 63.1464L28.3895 63.1491L25.4149 68.3011C24.3291 70.1818 21.9243 70.8262 20.0436 69.7404C18.1633 68.6546 17.5186 66.2498 18.6044 64.3691L20.7957 60.5738L21.0061 60.2094C21.3816 59.6698 22.3084 58.7379 24.1622 58.9133C24.1622 58.9133 28.5248 59.3867 28.8405 61.6541C28.8405 61.6541 28.8833 62.4001 28.3814 63.1464ZM70.5706 49.9876H61.2949C60.6631 49.9451 60.3875 49.7195 60.2788 49.5883L60.272 49.5764L50.3428 32.3783L50.3299 32.3868L49.7344 31.5331C48.7584 30.0405 47.2087 33.8576 47.2087 33.8576C45.3583 38.1111 47.4714 42.9467 48.2079 44.4084L61.9994 68.296C63.0849 70.1764 65.4896 70.8211 67.3706 69.7349C69.251 68.6491 69.8957 66.2444 68.8095 64.3637L65.3611 58.3906C65.2942 58.2458 65.178 57.853 65.8852 57.8513H70.5706C72.7422 57.8513 74.5026 56.0909 74.5026 53.9193C74.5026 51.7477 72.7422 49.9873 70.5706 49.9873V49.9876ZM52.5541 55.3327C52.5541 55.3327 53.0493 57.8513 51.1336 57.8513H16.8437C14.6721 57.8513 12.9117 56.0909 12.9117 53.9193C12.9117 51.7477 14.6721 49.9873 16.8437 49.9873H25.6592C27.0825 49.905 27.4196 49.0833 27.4196 49.0833L27.4278 49.0874L38.9349 29.1562L38.9315 29.1555C39.1412 28.7705 38.9665 28.4065 38.9362 28.3491L35.1358 21.7667C34.05 19.8863 34.6943 17.4812 36.575 16.3958C38.4557 15.31 40.8604 15.954 41.9462 17.8347L43.7087 20.8875L45.468 17.8401C46.5538 15.9597 48.9586 15.3151 50.8393 16.4012C52.72 17.487 53.3643 19.8914 52.2785 21.7721L36.2658 49.5067C36.1957 49.6757 36.1743 49.9407 36.6953 49.9873H46.2667L46.2687 50.0807C46.2687 50.0807 51.8007 50.1667 52.5541 55.3327Z" fill="white"/>
</g>
<defs>
<linearGradient id="paint0_linear_5_1797" x1="44" y1="0" x2="44" y2="87" gradientUnits="userSpaceOnUse">
<stop stop-color="#17C9FB"/>
<stop offset="1" stop-color="#1A74E8"/>
</linearGradient>
<clipPath id="clip0_5_1797">
<rect width="87" height="87" fill="white" transform="translate(0.5)"/>
</clipPath>
</defs>
</svg>
