<svg width="28" height="22" viewBox="0 0 28 22" fill="none" xmlns="http://www.w3.org/2000/svg">
<path d="M26.1747 0.38501H1.79971C1.28116 0.38501 0.862213 0.803955 0.862213 1.32251V20.0725C0.862213 20.5911 1.28116 21.01 1.79971 21.01H26.1747C26.6933 21.01 27.1122 20.5911 27.1122 20.0725V1.32251C27.1122 0.803955 26.6933 0.38501 26.1747 0.38501ZM25.0028 3.6311V18.9006H2.97159V3.6311L2.16299 3.00122L3.31436 1.52173L4.56827 2.49731H23.4091L24.663 1.52173L25.8144 3.00122L25.0028 3.6311ZM23.4091 2.49438L13.9872 9.8186L4.56534 2.49438L3.31143 1.5188L2.16006 2.99829L2.96866 3.62817L12.9765 11.4094C13.2643 11.633 13.6184 11.7544 13.9828 11.7544C14.3473 11.7544 14.7014 11.633 14.9892 11.4094L25.0028 3.6311L25.8114 3.00122L24.6601 1.52173L23.4091 2.49438Z" fill="#EF2779"/>
</svg>
