<svg width="35" height="28" viewBox="0 0 35 28" fill="none" xmlns="http://www.w3.org/2000/svg">
<path d="M34.0071 3.87621C32.7823 4.40455 31.4495 4.7848 30.0766 4.9329C31.502 4.08609 32.5694 2.74828 33.0785 1.17046C31.741 1.96613 30.2757 2.52407 28.7477 2.81953C28.1091 2.13679 27.3367 1.59289 26.4787 1.22172C25.6206 0.850548 24.6954 0.660061 23.7605 0.662126C19.978 0.662126 16.9361 3.72812 16.9361 7.49056C16.9361 8.0189 17.0001 8.54724 17.1042 9.05557C11.4405 8.75938 6.38923 6.05362 3.03105 1.91094C2.41915 2.95608 2.0985 4.14609 2.10245 5.35717C2.10245 7.72671 3.30723 9.81607 5.14442 11.0449C4.06174 11.0022 3.0044 10.7046 2.05842 10.1763V10.2604C2.05842 13.5785 4.40394 16.3283 7.52997 16.9607C6.94302 17.1132 6.33922 17.1912 5.7328 17.1929C5.28851 17.1929 4.86824 17.1488 4.44397 17.0888C5.30853 19.7945 7.82616 21.7598 10.8241 21.8239C8.47858 23.6611 5.54068 24.7418 2.35061 24.7418C1.77824 24.7418 1.24989 24.7217 0.701538 24.6577C3.7275 26.599 7.31783 27.7197 11.1843 27.7197C23.7365 27.7197 30.6049 17.3209 30.6049 8.29508C30.6049 7.99889 30.6049 7.70269 30.5849 7.4065C31.9138 6.43387 33.0785 5.22909 34.0071 3.87621Z" fill="#EF2779"/>
</svg>
